REM Benjamin Wolf
REM May 12, 2003
REM Eine Kleine Nachtmusik --First Movement (abridged) (Viola)
REM  by Mozart, Arranged by Merle J. Isaac

CLS
LOCATE 11, 21: PRINT "Eine Kleine Nachtmusik (Viola part)"
LOCATE 12, 23: PRINT "by Wolfgang Amadeus Mozart"
PLAY "T120 MS O3 L4 g p8 d8 g p8 L8 dgdgb>d4 p4"
 PLAY "L4 c p8 <a8>c p8 L8 <a>c<af#ad4 p4"
FOR x = 1 TO 2
   PLAY "MS O3 L8 ggggggggaaaa ML a>c<f#a"
NEXT x
PLAY "MN O3 L16 dddddddddddddddddddddddd d4 p4 p1"
REM Measure 11
PLAY "O2 ML f#2g2 MS L4 >cc<ad L8 d p8 >d8 p8 d8 p8 p4 p1"
PLAY "ML L8 f#2g2 MS c4cc<a4aa ggggggggggggggggg>gggggaaggf#f#ggee"
PLAY "O3 MN L16 ddddddddeeeeeeeeddddddddeeeeeeee MS L8 f#gagf#gaf#bagabag#b"
PLAY "O3 MS L8 aaaaaaaaa<aaaa4 p4"
REM Measure 28
PLAY "O3 MS L8 p2 p4 f# p8 <b p8 >g p8 e p8 c# p8 p4 e4 d ML p8 e p8 d2c#4 p4"
PLAY "O3 MS L8 p4 c#4 ML d p8 f# p8 MS <b p8 g p8 e p8>e p8 ML ed p4 p2"
REM Measure 35
PLAY "O3 MS L8 ddeef#f#dd c#c#ddeec#c# ddeef#f#dd c#c#ddeec#c#"
PLAY "O3 MS L8 ddf#ed#<b>c#d# egedc#<ab>c# d>ddddddd ML d MS <aaaa4 ag"
REM Measure 43
PLAY "O3 MS L8 f#deef#f#dd c#c#ddeec#c# ddeef#f#dd c#c#ddeec#c#"
PLAY "O3 MS L8 ddf#ed#<b>c#d# egedc#<ab>c# d>ddddddd ML d MS <aaaa4 ag"
PLAY "O3 MS L8 f#<ab>c#ddee f#c#def#f#gg aaa#a#b4 p4"
PLAY "O3 ML L8 e2. d MS c# d p8 d p8 d p8 p4"
REM Measure 56
PLAY "MS O3 L4 g p8 d8 g p8 L8 dgdgb>d4 p4"
PLAY "L4 c p8 <a8>c p8 L8 <a>c<af#ad4 p4"
FOR x = 1 TO 2
   PLAY "MS O3 L8 ggggggggaaaa ML a>c<f#a"
NEXT x
PLAY "MN O3 L16 dddddddddddddddddddddddd d4 p4 p1"
REM 66
PLAY "O2 ML f#2g2 MS L4 >cc<ad L8 d p8 >d8 p8 d8 p8 p4 p1"
PLAY "O3 ML L8 f#2g2 MS c4cc<a4aa ggggggggggggggggg>gggggaaggf#f#ggee"
PLAY "O3 MN L16 ddddddddeeeeeeeeddddddddeeeeeeee ddddeeeeddddeeee MS L8 d<ddd d4 p4"
REM 81
PLAY "O2 MS L8 p2 p4 b p8 e p8 >c p8 <a p8 f# p8 p4 >a4 g ML p8 a p8 g2f#4 p4"
PLAY "O3 MS L8 p4 f#4 ML g p8 b p8 MS e p8 c p8 <a4 p8 >a ML ag p4 p2"
REM 88
PLAY "O2 MS L8 ggaabbgg f#f#ggaaf#f# ggaabbgg f#f#ggaaf#f#"
PLAY "O2 MS L8 g>gbag#ef#g# a>c<agf#def# gggggggg ML g MS ddd d4 dc"
REM 96
PLAY "O2 MS L8 bgaabbgg f#f#ggaaf#f# g>gaabbgg f#f#ggaaf#f#"
PLAY "O3 MS L8 ggbag#ef#g# a>c<agf#def# gggggggg gb>dddddc <bdef#ggaa"
PLAY "O3 MS L8 b<f#gabb>cc ddd#d#e4 p4"
REM 107
PLAY "O2 ML L8 a2. g MS f# g4 p4 p2 ML a2. g MS f# L4 g p4 >g p4 e p4 d p4"
PLAY "O2 MS L16 gggggggggggggggg  ggggggggggggaaaa gggggggggggggggg"
PLAY "ggggggggggggaaaa L8 gb>dgbg>d<b g4<g.g16 g4"

